<?xml version="1.0" standalone="no"?>
<!DOCTYPE svg PUBLIC "-//W3C//DTD SVG 20010904//EN"
 "http://www.w3.org/TR/2001/REC-SVG-20010904/DTD/svg10.dtd">
<svg version="1.0" xmlns="http://www.w3.org/2000/svg"
 width="800.000000pt" height="912.000000pt" viewBox="0 0 800.000000 912.000000"
 preserveAspectRatio="xMidYMid meet">

<g transform="translate(0.000000,912.000000) scale(0.100000,-0.100000)"
fill="#000000" stroke="none">
<path d="M3845 8969 c-149 -17 -383 -86 -392 -115 -2 -7 11 -21 30 -33 44 -27
108 -27 167 0 189 86 544 90 747 9 107 -43 189 -38 232 14 11 14 7 18 -32 35
-64 28 -167 57 -267 76 -102 20 -373 28 -485 14z"/>
<path d="M3330 8812 c-44 -36 -41 -148 5 -166 51 -19 125 25 125 74 0 35 -29
86 -56 99 -34 15 -48 14 -74 -7z"/>
<path d="M4672 8823 c-7 -3 -19 -18 -27 -33 -53 -103 48 -204 119 -119 30 35
33 67 11 109 -22 43 -62 60 -103 43z"/>
<path d="M4828 8665 l-14 -32 48 -11 c26 -7 64 -18 83 -27 l36 -15 -40 -38
c-54 -51 -55 -73 -3 -61 45 10 148 10 182 -1 15 -5 18 -8 8 -9 -20 -1 -74 -53
-80 -78 -4 -16 4 -18 98 -18 64 0 107 -4 114 -11 9 -9 4 -14 -19 -19 -17 -3
-45 -21 -63 -38 l-33 -32 25 -2 c14 -2 76 -7 139 -12 121 -10 160 -24 91 -34
-23 -3 -60 -18 -83 -33 l-42 -28 45 -8 c173 -31 220 -42 259 -59 24 -11 46
-18 48 -16 7 8 -106 147 -181 222 -180 179 -384 317 -552 375 l-51 18 -15 -33z"/>
<path d="M3170 8676 c-202 -75 -496 -303 -675 -526 -52 -63 -70 -95 -42 -72
28 23 269 82 340 82 5 0 5 5 1 11 -10 16 -105 59 -131 59 -13 0 -23 4 -23 9 0
12 74 21 196 24 96 2 101 3 89 20 -20 28 -77 67 -99 67 -16 0 -18 2 -7 13 8 8
45 12 110 12 91 -1 98 1 93 18 -3 11 -20 34 -38 52 l-32 33 30 6 c41 8 114 7
166 -3 23 -5 42 -6 42 -4 0 3 -18 25 -40 50 -22 25 -37 49 -35 54 3 4 36 17
74 29 l69 22 -11 29 c-12 32 -24 34 -77 15z"/>
<path d="M1100 8168 c-372 -52 -704 -372 -850 -817 -60 -183 -75 -293 -75
-536 0 -319 10 -356 238 -925 206 -515 266 -710 303 -990 21 -164 13 -374 -22
-534 -6 -28 -6 -29 27 -22 41 8 115 57 148 98 36 45 50 95 51 185 0 45 5 94
11 110 l11 28 19 -23 c10 -13 24 -43 30 -65 l11 -42 20 40 c36 69 29 125 -30
240 -72 141 -97 253 -75 335 5 20 11 6 29 -65 41 -165 56 -195 146 -281 79
-75 82 -77 91 -53 18 49 2 142 -38 215 -78 141 -85 158 -85 192 l0 35 23 -20
c27 -25 87 -56 94 -49 8 8 -16 105 -36 150 -11 23 -51 79 -90 125 -70 84 -81
101 -61 101 21 0 85 -31 107 -52 l23 -21 0 40 c0 27 -9 53 -25 78 -15 20 -24
39 -21 42 7 7 87 -37 112 -62 l24 -24 11 42 c15 55 7 142 -16 192 -10 22 -48
69 -84 104 -116 113 -128 145 -51 139 39 -2 49 0 45 10 -3 8 -5 18 -5 22 0 5
-15 26 -32 46 -24 27 -70 55 -164 100 -152 72 -193 104 -223 174 -31 72 -11
120 50 120 27 0 32 -6 63 -74 39 -85 65 -107 137 -114 l49 -5 -25 44 c-23 40
-35 119 -18 119 3 0 34 -27 68 -59 59 -57 107 -81 162 -81 30 0 36 14 28 66
-8 56 -45 100 -130 153 -68 43 -85 64 -85 105 0 34 14 33 86 -4 32 -16 61 -30
63 -30 2 0 1 22 -1 49 -6 63 -24 90 -93 141 -30 22 -55 44 -55 49 0 4 32 11
71 15 38 3 87 13 107 21 l36 16 -60 28 c-32 16 -75 42 -94 59 l-35 30 30 7
c100 23 132 36 165 70 l34 35 -27 0 c-80 0 -205 80 -266 170 -48 73 -66 157
-59 286 3 76 9 99 37 156 60 121 182 207 324 229 150 23 314 -53 380 -176 30
-56 30 -164 0 -221 -46 -87 -146 -147 -249 -148 -107 -2 -176 65 -177 169 -1
62 26 121 64 140 43 23 49 18 28 -22 -24 -48 -24 -90 1 -130 71 -117 227 -83
258 55 30 134 -86 258 -239 256 -152 -2 -267 -141 -257 -310 8 -120 70 -208
188 -263 48 -23 68 -26 160 -26 101 0 108 1 168 34 106 57 186 169 212 294 42
206 -128 422 -381 482 -70 16 -207 18 -309 3z m-270 -265 c-56 -67 -128 -182
-149 -237 -50 -136 -67 -378 -37 -546 30 -166 111 -339 203 -434 36 -36 41
-46 26 -46 -28 0 -102 50 -147 100 -48 54 -118 200 -145 303 -66 252 -49 465
54 673 50 102 101 161 172 198 26 14 50 25 51 26 2 0 -10 -17 -28 -37z m-394
-710 c-28 -95 -39 -435 -17 -538 67 -319 161 -447 504 -682 74 -51 117 -101
132 -152 7 -23 5 -22 -36 11 -24 20 -100 72 -169 117 -170 110 -200 134 -285
225 -146 155 -225 370 -225 611 0 133 30 327 60 385 20 40 46 56 36 23z"/>
<path d="M6671 8165 c-277 -63 -446 -293 -387 -525 30 -117 104 -210 206 -258
118 -56 298 -36 404 45 165 127 149 397 -29 495 -42 23 -62 28 -125 28 -148 0
-231 -74 -231 -206 0 -61 28 -123 67 -149 118 -77 268 64 185 175 -29 40 -19
50 26 25 91 -50 99 -196 14 -268 -105 -88 -293 -37 -364 98 -30 57 -30 174 0
231 32 59 79 101 161 142 68 33 81 36 155 35 175 -2 320 -91 393 -239 27 -56
29 -66 29 -189 0 -123 -2 -133 -29 -188 -39 -80 -120 -160 -198 -197 -34 -17
-73 -30 -85 -30 -32 0 -29 -13 10 -47 31 -27 63 -39 152 -58 l30 -7 -38 -33
c-21 -18 -62 -44 -92 -56 -30 -13 -55 -27 -55 -30 0 -11 84 -31 148 -37 34 -2
62 -8 62 -13 0 -5 -25 -27 -55 -49 -69 -51 -87 -78 -93 -141 -5 -52 1 -58 35
-34 32 23 105 47 114 38 4 -5 2 -24 -4 -43 -9 -27 -29 -46 -87 -85 -80 -53
-116 -97 -126 -151 -9 -48 0 -64 36 -64 51 0 102 28 157 85 28 30 56 55 62 55
16 0 13 -48 -5 -95 -29 -76 -30 -73 18 -65 66 10 80 22 123 104 43 82 66 98
110 78 34 -15 41 -54 21 -107 -26 -66 -68 -100 -221 -175 -77 -38 -150 -77
-162 -88 -20 -18 -63 -80 -63 -92 0 -3 18 -4 41 -2 85 8 74 -27 -41 -138 -68
-66 -80 -83 -95 -135 -18 -61 -15 -179 6 -199 6 -6 9 -6 9 1 0 15 88 70 125
79 l30 7 -22 -24 c-27 -30 -43 -71 -43 -110 l0 -30 33 24 c29 22 87 47 109 47
12 0 -22 -48 -85 -119 -27 -31 -60 -79 -73 -107 -22 -46 -47 -144 -39 -152 5
-6 61 26 74 42 8 9 17 16 22 16 16 0 10 -65 -10 -100 -101 -188 -101 -189
-100 -253 1 -111 6 -113 88 -30 82 83 122 157 156 291 24 92 35 89 35 -12 0
-81 -21 -150 -81 -264 -55 -104 -62 -158 -33 -232 18 -46 29 -45 38 4 6 34 41
75 53 63 3 -4 9 -55 13 -114 7 -129 22 -165 92 -228 46 -42 120 -76 134 -62 3
3 1 28 -5 56 -6 28 -16 113 -22 188 -10 118 -10 159 5 283 33 283 91 485 277
947 205 513 226 578 255 793 61 463 -77 947 -357 1255 -118 129 -313 245 -479
285 -115 27 -295 34 -379 15z m640 -281 c136 -94 244 -440 210 -678 -37 -265
-147 -484 -275 -546 -23 -11 -48 -20 -54 -20 -6 0 17 37 52 83 89 116 112 156
142 243 40 120 54 214 54 360 0 142 -16 245 -52 341 -25 67 -107 191 -153 232
-19 17 -35 33 -35 36 0 9 73 -24 111 -51z m359 -714 c27 -53 60 -250 60 -360
0 -154 -42 -345 -102 -465 -62 -121 -211 -280 -313 -332 -56 -29 -147 -91
-244 -167 -55 -43 -63 -47 -56 -25 18 62 67 111 200 199 200 134 319 276 390
464 52 139 67 350 42 604 -7 67 -9 122 -5 122 4 0 17 -18 28 -40z"/>
<path d="M3373 8099 c-64 -18 -103 -98 -70 -143 18 -25 61 -18 65 11 2 16 -4
26 -22 35 -33 14 -33 31 0 57 39 31 97 28 123 -5 42 -53 18 -111 -103 -246
-47 -53 -86 -101 -86 -107 0 -7 43 -11 129 -11 l128 0 7 38 c13 84 1 109 -25
50 -14 -32 -15 -33 -88 -36 -41 -2 -78 1 -83 6 -5 5 29 40 80 84 52 45 96 91
106 113 32 68 1 134 -75 155 -39 11 -43 11 -86 -1z"/>
<path d="M3771 8088 c-56 -38 -76 -88 -76 -193 0 -105 20 -156 74 -192 43 -29
79 -29 121 0 60 40 75 78 75 192 0 82 -4 106 -20 134 -44 74 -116 99 -174 59z
m84 -8 c41 -15 55 -64 55 -187 0 -83 -4 -116 -18 -143 -35 -70 -110 -60 -131
17 -14 51 -13 219 2 263 7 19 23 40 37 47 30 15 24 15 55 3z"/>
<path d="M4190 8093 c-21 -11 -45 -36 -60 -63 -21 -39 -25 -58 -25 -135 0 -72
4 -98 21 -130 59 -114 180 -109 235 10 28 60 26 187 -3 245 -40 77 -105 105
-168 73z m75 -13 c41 -15 57 -68 57 -185 0 -144 -32 -207 -98 -191 -44 11 -59
58 -59 186 0 143 13 178 72 199 1 1 13 -3 28 -9z"/>
<path d="M4593 8095 c-49 -21 -72 -87 -39 -114 32 -27 65 26 34 57 -20 20 10
42 58 42 51 0 74 -25 74 -80 0 -55 -22 -78 -78 -82 -63 -4 -60 -22 5 -26 64
-4 83 -25 83 -93 0 -69 -24 -94 -89 -94 -34 0 -56 5 -67 17 -17 16 -17 18 0
37 24 26 17 65 -11 69 -49 7 -54 -80 -6 -118 56 -44 147 -38 200 15 45 45 47
103 4 146 -16 16 -38 29 -48 29 -13 0 -8 8 20 31 32 26 37 36 37 73 0 81 -92
128 -177 91z"/>
<path d="M2505 8021 c-128 -33 -201 -151 -164 -262 16 -47 66 -97 108 -109 71
-20 159 9 191 63 26 42 27 118 2 140 -48 44 -140 -3 -127 -63 10 -45 -29 -40
-54 7 -18 35 -13 60 18 95 26 29 35 33 98 36 63 4 72 2 101 -23 43 -36 62 -75
62 -125 0 -126 -119 -210 -297 -210 -163 0 -434 81 -548 165 -20 14 -20 13
-17 -24 2 -22 -3 -64 -12 -94 -9 -30 -16 -57 -16 -60 0 -11 128 -60 213 -82
134 -34 273 -49 396 -42 215 11 331 86 377 243 39 135 -13 266 -131 326 -43
23 -149 33 -200 19z"/>
<path d="M5420 8017 c-134 -38 -209 -145 -197 -280 11 -125 98 -231 228 -277
161 -56 489 -28 705 61 l72 30 -14 46 c-8 25 -14 68 -14 95 0 26 -2 48 -5 48
-3 0 -23 -11 -45 -25 -177 -111 -503 -176 -659 -129 -91 27 -161 108 -161 187
0 37 38 102 77 131 56 42 163 27 199 -29 31 -48 15 -115 -28 -115 -14 0 -18 5
-13 19 9 28 -14 68 -46 81 -44 19 -78 5 -95 -37 -43 -101 47 -194 173 -180
123 14 185 173 110 286 -50 75 -186 117 -287 88z"/>
<path d="M1333 5565 l3 -1470 22 -140 c72 -447 193 -825 382 -1199 440 -873
1203 -1537 2198 -1911 l102 -38 128 48 c822 310 1546 906 1990 1636 270 444
435 916 529 1513 l27 171 3 1430 4 1430 -2696 0 -2696 0 4 -1470z m2657 -1635
l0 -2960 -42 17 c-204 79 -420 179 -593 276 -128 71 -413 262 -525 352 -522
418 -907 954 -1143 1590 -83 223 -144 461 -190 740 -21 128 -21 153 -24 1538
l-4 1407 1261 0 1260 0 0 -2960z m2597 1598 c-3 -1228 -5 -1374 -20 -1478 -76
-507 -188 -872 -387 -1265 -179 -353 -375 -622 -669 -915 -365 -363 -809 -658
-1279 -846 -74 -30 -136 -54 -138 -54 -2 0 -4 1332 -4 2960 l0 2960 1250 0
1251 0 -4 -1362z"/>
<path d="M2007 6200 c-31 -36 -43 -90 -28 -119 18 -33 38 -26 34 12 -2 17 1
39 7 47 9 13 11 13 20 0 6 -8 9 -30 7 -47 -3 -36 4 -41 27 -17 20 20 20 57 0
100 -26 54 -38 59 -67 24z"/>
<path d="M1596 6059 c-32 -37 -35 -97 -8 -122 24 -22 35 -22 23 1 -6 11 -5 27
4 47 11 25 14 27 20 12 4 -9 5 -31 3 -47 -5 -34 -4 -34 23 -20 25 14 25 59 -1
110 -27 53 -34 55 -64 19z"/>
<path d="M2405 6047 c-30 -53 -32 -88 -5 -112 20 -18 20 -17 20 16 0 41 16 72
24 49 3 -8 7 -30 8 -49 3 -33 4 -34 21 -17 25 25 21 74 -9 118 -15 21 -28 38
-30 38 -2 0 -15 -20 -29 -43z"/>
<path d="M2000 5915 l0 -115 35 0 35 0 0 115 0 115 -35 0 -35 0 0 -115z"/>
<path d="M1590 5815 l0 -75 35 0 35 0 0 75 0 75 -35 0 -35 0 0 -75z"/>
<path d="M2405 5815 l0 -75 30 0 30 0 0 75 0 75 -30 0 -30 0 0 -75z"/>
<path d="M1981 5713 c0 -38 -7 -113 -16 -168 -9 -55 -14 -115 -10 -132 l6 -33
74 0 75 0 0 57 c0 31 -9 106 -21 166 -12 61 -19 125 -16 144 l6 33 -49 0 -49
0 0 -67z"/>
<path d="M1580 5663 c-1 -32 -7 -85 -15 -118 -8 -33 -15 -84 -15 -112 l0 -53
75 0 75 0 0 43 c0 24 -9 87 -20 139 -11 54 -17 110 -14 127 l7 31 -47 0 -46 0
0 -57z"/>
<path d="M2398 5686 c2 -19 -3 -70 -12 -113 -8 -43 -18 -104 -22 -135 l-7 -58
83 0 82 0 -7 63 c-4 34 -13 89 -21 122 -7 33 -14 81 -14 108 l0 47 -43 0 -43
0 4 -34z"/>
<path d="M3017 5346 c-21 -9 -39 -10 -67 -3 -30 9 -50 7 -101 -10 -35 -12 -95
-26 -134 -33 -65 -11 -115 -38 -115 -62 0 -5 17 -37 38 -71 l37 -62 49 3 c68
4 93 -4 127 -41 34 -37 37 -74 9 -110 -33 -41 -86 -42 -181 -3 -36 15 -31 -72
5 -96 20 -14 71 -8 110 12 34 17 42 18 71 6 33 -14 33 -14 39 16 3 17 16 46
27 65 20 31 23 33 38 19 22 -20 31 -20 31 -1 0 9 7 32 15 52 l15 36 28 -26
c35 -33 42 -34 42 -3 0 14 5 37 10 52 l10 26 23 -33 c32 -48 54 -49 63 -4 6
33 8 35 23 21 32 -29 79 -39 111 -26 36 15 39 30 6 30 -32 0 -107 33 -125 54
-18 21 -28 20 -36 -4 -8 -26 -25 -26 -25 -1 0 35 -21 34 -57 -4 -19 -20 -37
-34 -40 -32 -7 7 25 56 64 98 82 87 2 185 -110 135z m98 -47 c8 -11 -40 -89
-54 -89 -16 0 -61 60 -61 81 0 16 7 19 54 19 30 0 58 -5 61 -11z m-176 -109
c12 0 15 -30 4 -30 -54 -4 -163 -4 -163 -1 0 3 8 13 17 23 11 13 17 35 16 69
l-1 50 58 -56 c32 -30 63 -55 69 -55z"/>
<path d="M3040 5260 c12 -23 21 -25 38 -8 20 20 14 28 -18 28 -28 0 -30 -2
-20 -20z"/>
<path d="M2845 5210 c-9 -15 -6 -17 30 -26 17 -4 28 -5 25 -3 -3 2 -15 12 -27
22 -15 13 -23 15 -28 7z"/>
<path d="M1520 5340 c0 -32 164 -44 194 -14 9 8 16 17 16 20 0 2 -47 4 -105 4
-61 0 -105 -4 -105 -10z"/>
<path d="M1920 5340 c0 -19 41 -30 113 -30 60 0 80 4 98 20 l24 19 -117 1
c-70 0 -118 -4 -118 -10z"/>
<path d="M2345 5330 c15 -17 31 -20 95 -20 64 0 80 3 95 20 18 20 17 20 -95
20 -112 0 -113 0 -95 -20z"/>
<path d="M1600 5246 c0 -25 7 -40 26 -55 26 -20 37 -21 404 -21 361 0 378 1
403 20 16 12 26 33 29 55 4 32 2 35 -23 35 -23 0 -28 -5 -31 -27 l-3 -28 -175
0 -175 0 3 28 c3 24 0 27 -26 27 -26 0 -28 -3 -24 -30 l4 -30 -178 2 -179 3
-3 28 c-3 21 -9 27 -28 27 -21 0 -24 -5 -24 -34z"/>
<path d="M3178 5232 l-27 -18 48 -22 c51 -23 96 -28 121 -12 12 7 11 10 -5 16
-11 4 -31 15 -45 24 -41 28 -63 31 -92 12z"/>
<path d="M1934 5153 c-19 -14 -23 -42 -8 -58 20 -20 78 -19 94 1 11 12 10 18
-6 34 -22 22 -64 34 -80 23z"/>
<path d="M2043 5116 c2 -32 6 -38 32 -44 30 -8 30 -8 35 -96 6 -107 14 -116
110 -116 37 0 69 -2 71 -5 3 -2 3 -26 -1 -52 l-5 -48 -50 -2 c-27 -1 -54 -2
-58 -2 -5 -1 3 -21 17 -45 15 -26 26 -60 26 -83 l1 -38 28 33 c15 17 31 29 34
25 12 -11 8 -53 -9 -84 -8 -17 -14 -33 -12 -35 3 -2 22 5 43 16 21 11 41 18
43 15 2 -2 -5 -22 -17 -45 -24 -46 -11 -54 32 -20 14 11 28 20 31 20 12 0 5
-46 -10 -68 -9 -13 -14 -25 -13 -27 2 -1 56 12 119 31 63 19 136 37 162 40 27
4 48 8 48 9 0 1 -5 16 -11 33 -9 28 -14 30 -44 25 -19 -3 -45 -3 -60 1 -24 6
-25 7 -9 32 9 13 15 26 13 28 -2 2 -28 16 -57 32 -81 43 -128 95 -142 157 -19
78 -44 113 -110 148 -40 21 -74 50 -107 91 -26 33 -55 69 -63 79 -8 10 -27 21
-42 24 -25 7 -27 5 -25 -29z"/>
<path d="M1934 5060 c-33 -13 -36 -37 -7 -60 33 -26 65 -26 88 0 18 20 18 21
-1 39 -25 24 -54 32 -80 21z"/>
<path d="M3120 5044 c0 -22 -31 -94 -41 -94 -5 0 -9 6 -9 14 0 7 -7 19 -16 27
-19 15 -26 7 -51 -63 l-17 -47 -13 30 c-6 16 -17 29 -22 29 -14 0 -25 -64 -17
-95 6 -25 5 -26 -29 -19 -31 5 -39 2 -70 -29 l-35 -35 0 26 c0 14 7 34 16 43
16 17 15 18 -14 9 -45 -12 -52 -19 -68 -56 -14 -32 -19 -104 -9 -104 18 0 86
44 104 66 l21 27 2 -24 c1 -13 0 -44 -1 -69 -1 -25 2 -56 7 -70 8 -23 11 -20
26 35 10 32 16 76 14 98 l-4 38 58 -6 58 -7 0 31 c0 33 28 111 40 111 4 0 15
-9 25 -20 10 -11 21 -20 25 -20 3 0 17 25 29 55 l23 55 43 -38 c43 -37 39 -56
-6 -32 -27 15 -39 0 -39 -47 0 -39 -11 -41 -64 -12 l-39 20 5 -60 4 -61 -33
-6 c-18 -3 -43 -4 -56 -2 -20 4 -22 1 -19 -31 2 -26 -4 -45 -22 -70 l-26 -35
47 -18 c27 -10 50 -18 52 -18 2 0 1 29 -1 65 -3 44 0 65 7 65 7 0 34 -11 61
-25 27 -14 50 -25 52 -25 7 0 0 104 -8 121 -8 14 -7 19 2 19 20 0 78 -38 84
-55 9 -22 21 -18 28 10 4 16 -1 40 -15 66 -13 26 -17 45 -11 51 6 6 12 0 16
-16 8 -32 44 -54 58 -35 10 15 5 111 -7 144 -7 19 -6 19 15 -2 17 -16 24 -36
28 -77 4 -50 7 -56 35 -65 16 -6 43 -11 59 -11 l29 0 -19 28 c-11 15 -34 56
-51 91 -34 71 -62 106 -102 127 -26 13 -27 12 -39 -16 -16 -38 -34 -38 -71 -1
-18 18 -29 24 -29 15z"/>
<path d="M2042 5031 c10 -17 9 -23 -5 -39 -16 -18 -16 -20 -1 -33 11 -9 14
-22 10 -42 -5 -25 -3 -28 17 -25 21 3 22 8 22 78 0 75 0 75 -28 78 -26 3 -27
2 -15 -17z"/>
<path d="M2616 5015 c-72 -30 -110 -31 -153 -5 l-33 20 0 -24 c0 -38 10 -56
42 -72 40 -21 86 -12 164 32 64 35 96 41 153 24 45 -13 49 -7 18 24 -35 35
-109 35 -191 1z"/>
<path d="M1920 4950 c-23 -42 58 -81 94 -44 20 20 20 27 -2 47 -26 24 -79 22
-92 -3z"/>
<path d="M1933 4862 c-7 -7 -13 -20 -13 -28 0 -11 -15 -14 -60 -14 -57 0 -60
-1 -60 -25 l0 -25 223 2 c222 3 222 3 225 26 3 21 0 22 -63 22 -60 0 -66 2
-75 24 -8 22 -15 25 -86 28 -55 2 -82 -1 -91 -10z"/>
<path d="M3600 4871 c-82 -26 -158 -89 -186 -157 -27 -65 -18 -125 32 -220 41
-77 45 -93 42 -141 -2 -41 0 -52 10 -48 8 3 15 5 18 5 9 0 34 61 34 83 0 13
-20 62 -45 109 -25 48 -45 97 -45 110 0 34 18 91 35 113 14 19 14 18 5 -8 -27
-76 -2 -171 64 -245 20 -21 36 -48 36 -58 0 -16 2 -17 10 -4 16 24 11 73 -10
115 l-20 38 31 -29 c16 -15 36 -49 43 -73 12 -42 14 -44 24 -24 7 12 12 38 12
58 0 31 -9 45 -60 96 -41 41 -60 67 -60 84 0 34 12 31 30 -8 12 -26 22 -33 51
-35 23 -2 40 2 49 12 10 13 10 16 -2 16 -22 0 -47 32 -54 67 -5 26 -1 37 19
57 52 52 142 25 173 -50 29 -70 12 -133 -79 -282 -30 -51 -61 -109 -68 -129
-21 -63 -7 -158 40 -266 73 -171 100 -332 66 -397 -29 -56 -115 -78 -165 -43
-38 26 -57 53 -81 113 -41 102 -71 155 -131 230 -113 141 -144 232 -134 388 6
106 -1 141 -37 171 -13 10 -16 7 -22 -19 -4 -17 -18 -44 -32 -61 l-26 -30 -30
36 -30 37 -24 -49 c-12 -26 -31 -59 -41 -72 l-19 -23 -21 37 -22 36 -34 -35
c-41 -44 -56 -45 -56 -6 0 20 -9 40 -26 57 -25 25 -29 25 -112 20 -48 -2 -148
-19 -222 -37 -101 -24 -159 -32 -231 -32 -126 -1 -182 23 -259 110 -58 67 -96
87 -135 72 -19 -7 -45 -37 -45 -52 0 -2 16 -3 37 -4 25 0 42 -8 55 -23 27 -34
22 -46 -8 -22 -36 28 -88 28 -109 -1 -15 -23 -15 -23 24 -30 49 -8 85 -31 99
-63 11 -24 11 -24 -30 5 -34 25 -48 29 -72 24 -56 -12 -56 -21 -8 -74 42 -47
49 -50 92 -50 29 0 52 6 59 14 21 25 67 36 87 22 36 -27 -8 -57 -68 -47 -14 2
-8 -16 11 -33 31 -28 75 -36 107 -19 25 13 35 13 84 -1 68 -18 185 -36 239
-36 48 0 64 -22 64 -87 0 -46 16 -49 36 -5 12 25 13 26 23 7 11 -20 37 -45 48
-45 3 0 4 17 2 38 -2 21 3 53 11 72 13 29 16 31 16 13 1 -26 31 -93 42 -93 4
0 10 15 13 33 6 33 31 77 44 77 4 0 8 -18 9 -41 0 -22 4 -51 7 -65 7 -26 7
-26 36 14 38 53 50 59 50 27 0 -88 44 -160 138 -224 78 -52 142 -123 143 -158
2 -54 -2 -158 -8 -178 -3 -11 -24 -39 -47 -63 -37 -38 -41 -48 -40 -90 1 -30
9 -61 24 -85 15 -26 21 -48 18 -72 -5 -44 6 -44 48 1 19 19 34 29 34 22 0 -7
5 -31 11 -53 l11 -40 18 36 c10 19 26 41 34 48 13 11 17 10 22 -5 31 -97 43
-106 84 -62 29 32 31 32 43 14 7 -11 21 -29 32 -41 17 -18 20 -35 20 -131 1
-94 4 -118 27 -171 14 -34 23 -65 20 -68 -12 -12 -32 -3 -72 30 -71 59 -157
44 -176 -31 -5 -19 -1 -31 14 -47 l21 -20 7 27 c6 26 30 46 55 46 7 0 3 -10
-9 -23 -22 -24 -28 -52 -14 -74 15 -24 34 -17 45 17 9 26 19 36 37 39 24 3 25
3 7 -17 -11 -12 -17 -31 -15 -49 3 -27 5 -28 48 -25 57 3 105 19 153 49 l39
25 -4 83 c-3 75 -1 82 14 74 9 -5 19 -9 22 -9 12 0 -9 37 -38 69 -30 33 -31
33 -6 26 14 -4 31 -10 38 -12 20 -8 3 28 -31 65 l-31 32 36 0 c42 0 68 8 68
21 0 5 -10 9 -23 9 -13 0 -32 6 -42 14 -17 13 -17 15 16 44 l34 31 -26 1 c-25
0 -26 2 -21 50 4 45 2 52 -25 78 -17 15 -56 36 -88 46 -72 22 -132 76 -142
126 -6 34 -6 35 14 18 11 -10 32 -18 46 -18 27 0 27 0 13 38 -26 68 -26 88 -3
161 31 94 41 100 34 20 -6 -65 -5 -67 26 -96 64 -61 153 -90 219 -72 100 26
139 120 118 281 -12 91 -8 175 11 210 13 23 -7 24 -33 1 -31 -28 -33 -6 -5 62
36 88 36 102 -3 74 -43 -32 -47 -17 -7 28 37 41 61 82 54 90 -3 2 -20 -3 -37
-12 -35 -18 -34 -9 3 32 10 12 22 42 24 67 l6 45 -49 -44 c-26 -24 -50 -43
-52 -40 -2 2 26 63 62 137 38 77 69 152 72 178 18 134 -78 232 -222 229 -27 0
-60 -4 -74 -8z"/>
<path d="M2678 4754 c-19 -20 -91 -22 -112 -5 -12 10 -16 8 -21 -8 -13 -41 36
-88 77 -75 18 5 20 3 15 -22 -3 -16 -8 -39 -12 -51 -9 -30 13 -31 48 -3 14 11
28 20 31 20 3 0 8 -17 12 -37 11 -65 21 -73 38 -31 9 21 16 45 16 54 0 10 17
-2 45 -33 35 -38 44 -44 44 -28 0 11 -6 31 -14 45 -8 14 -14 49 -15 79 l0 55
-27 -26 c-28 -25 -92 -53 -101 -43 -3 3 -4 32 -3 65 1 33 1 60 -1 60 -2 0 -11
-7 -20 -16z"/>
<path d="M3245 4744 c-9 -9 -19 -29 -22 -45 -5 -27 -23 -41 -23 -19 0 12 -37
50 -49 50 -5 0 -7 -9 -4 -20 6 -23 -3 -78 -16 -99 -7 -11 -15 -9 -43 13 -35
26 -65 35 -53 16 7 -11 -13 -120 -21 -120 -3 0 -15 7 -28 15 -13 9 -38 20 -55
25 -30 8 -31 8 -31 -23 0 -18 -6 -41 -13 -52 -11 -17 -9 -24 15 -48 l27 -28
19 37 19 36 35 -31 36 -31 21 49 c11 28 21 54 21 60 0 21 18 11 55 -31 36 -39
39 -40 52 -22 9 11 13 36 11 62 -4 51 9 54 62 12 20 -16 40 -27 43 -24 10 10
-12 64 -38 96 -32 37 -26 47 12 20 15 -11 38 -23 49 -26 20 -6 19 -1 -15 69
-20 41 -39 75 -43 75 -4 0 -14 -7 -23 -16z"/>
<path d="M2770 4531 c0 -5 -2 -15 -5 -23 -3 -8 3 -13 17 -13 13 -1 34 -4 48
-9 l25 -7 -25 21 c-36 30 -60 42 -60 31z"/>
<path d="M3398 4440 c-3 -74 3 -81 35 -38 19 26 19 27 1 67 -11 22 -22 41 -26
41 -3 0 -8 -32 -10 -70z"/>
<path d="M2984 3788 c-50 -52 -113 -90 -227 -134 -60 -24 -118 -51 -128 -60
-10 -9 -30 -47 -44 -85 -17 -42 -38 -78 -57 -94 l-30 -25 29 -1 c15 -1 44 -1
63 0 31 1 33 0 16 -12 -39 -26 -76 -59 -76 -69 0 -6 17 -8 40 -6 46 4 48 1 20
-35 -11 -14 -20 -30 -20 -35 0 -10 45 -3 84 14 17 6 15 2 -7 -28 -15 -19 -27
-48 -27 -63 l0 -28 23 20 c24 22 57 37 57 25 0 -4 -7 -16 -15 -26 -23 -31 -18
-37 28 -30 l42 6 -52 -36 c-69 -47 -84 -72 -90 -148 -3 -35 -10 -69 -16 -75
-14 -19 -69 -16 -118 7 -61 27 -104 26 -134 -5 -27 -26 -31 -54 -15 -86 13
-22 30 -25 30 -4 0 16 30 35 56 35 13 0 10 -5 -10 -21 -29 -23 -34 -60 -11
-79 12 -10 20 -7 46 14 17 14 40 26 51 26 17 0 15 -4 -11 -26 -36 -30 -38 -44
-11 -69 20 -18 21 -18 43 2 37 34 65 44 137 50 37 3 74 9 82 14 9 6 13 32 13
84 0 77 4 86 25 60 17 -20 32 -19 29 3 -4 39 0 44 23 28 34 -24 41 -20 35 22
-2 20 -2 48 2 61 6 21 8 22 20 7 16 -19 43 -21 40 -3 -1 6 1 34 5 60 7 38 4
60 -13 106 -28 77 -27 113 4 149 24 29 25 31 6 37 -10 3 -26 17 -35 30 l-16
24 34 -14 c20 -9 44 -11 60 -7 l28 8 -27 14 c-27 14 -74 70 -58 70 4 -1 19 -7
33 -15 43 -25 63 -18 85 29 18 39 19 47 7 76 -11 27 -11 46 -2 97 7 35 10 72
7 83 -6 24 10 26 41 4 13 -9 26 -13 29 -10 13 13 -18 56 -55 75 l-39 20 -29
-31z"/>
<path d="M3060 3637 c0 -44 5 -80 13 -91 12 -16 14 -16 26 10 7 16 15 49 18
75 5 45 4 48 -26 63 l-31 17 0 -74z"/>
<path d="M4990 5243 c-27 -11 -30 -26 -30 -180 0 -125 3 -154 16 -167 18 -19
28 -20 55 -6 18 10 19 23 19 175 0 152 -1 165 -19 175 -11 5 -21 10 -23 9 -2
0 -10 -3 -18 -6z"/>
<path d="M5219 5243 c-24 -6 -29 -33 -29 -178 0 -153 4 -173 36 -181 49 -12
54 5 54 182 0 151 -1 164 -19 174 -11 5 -21 9 -23 9 -2 -1 -10 -3 -19 -6z"/>
<path d="M5443 5240 c-23 -9 -23 -13 -23 -174 0 -153 1 -166 19 -176 27 -14
37 -13 55 6 13 13 16 43 16 169 0 126 -3 156 -16 169 -17 18 -20 18 -51 6z"/>
<path d="M5663 5240 c-23 -9 -23 -13 -23 -174 0 -153 1 -166 19 -176 27 -14
37 -13 55 6 13 13 16 43 16 169 0 126 -3 156 -16 169 -17 18 -20 18 -51 6z"/>
<path d="M4740 4800 c-19 -19 -20 -33 -20 -553 0 -523 0 -534 20 -555 l21 -22
587 0 c516 0 590 2 610 16 l22 15 0 539 0 539 -22 21 c-21 20 -32 20 -610 20
-575 0 -588 0 -608 -20z m1140 -89 c6 -13 10 -178 10 -468 0 -372 -2 -453 -14
-469 -14 -18 -33 -19 -511 -22 -437 -2 -500 -1 -521 13 l-24 15 0 463 c0 347
3 466 12 475 9 9 139 12 525 12 496 0 513 -1 523 -19z"/>
<path d="M5108 4593 c-24 -6 -23 -19 2 -26 19 -5 20 -14 20 -126 l0 -121 25 0
25 0 0 140 0 140 -27 -1 c-16 -1 -36 -3 -45 -6z"/>
<path d="M5466 4570 c-30 -36 -41 -85 -32 -146 10 -77 42 -108 111 -106 66 2
109 101 85 194 -17 63 -44 88 -96 88 -35 0 -47 -5 -68 -30z m101 -17 c25 -37
25 -149 0 -186 -43 -66 -92 -3 -85 110 6 93 49 132 85 76z"/>
<path d="M5095 4136 c-71 -71 -45 -239 40 -260 40 -10 94 18 110 58 28 67 16
157 -27 204 -30 31 -91 30 -123 -2z m91 -17 c26 -29 32 -144 10 -187 -20 -40
-49 -41 -73 -5 -25 37 -25 149 0 186 21 32 38 34 63 6z"/>
<path d="M5503 4153 c-36 -5 -47 -33 -13 -33 18 0 20 -8 22 -122 3 -115 4
-123 23 -123 19 0 20 8 23 143 2 111 0 142 -10 140 -7 0 -28 -3 -45 -5z"/>
<path d="M6064 4646 c-3 -8 -4 -25 -2 -38 l3 -23 169 0 c150 0 170 2 180 18 8
12 8 22 0 35 -10 15 -32 17 -178 20 -138 2 -167 0 -172 -12z"/>
<path d="M4242 4638 c-7 -7 -12 -21 -12 -33 0 -41 16 -45 180 -45 164 0 180 4
180 45 0 41 -16 45 -180 45 -108 0 -160 -4 -168 -12z"/>
<path d="M6066 4424 c-3 -8 -3 -26 0 -40 l6 -24 169 0 c158 0 169 1 179 20 8
14 8 26 0 40 -10 19 -21 20 -179 20 -145 0 -170 -2 -175 -16z"/>
<path d="M4247 4423 c-14 -13 -7 -71 9 -77 31 -12 319 -7 332 6 18 18 14 56
-7 68 -21 11 -323 14 -334 3z"/>
<path d="M6088 4213 c-23 -6 -34 -49 -18 -68 19 -23 322 -22 345 1 16 17 12
53 -9 66 -12 8 -289 9 -318 1z"/>
<path d="M4244 4186 c-3 -8 -4 -25 -2 -38 3 -21 9 -23 70 -28 37 -3 115 -3
173 -2 102 4 105 5 111 28 12 49 -4 54 -183 54 -132 0 -165 -3 -169 -14z"/>
<path d="M6086 3977 c-12 -9 -17 -23 -14 -42 l3 -30 166 -3 c138 -2 168 0 179
13 17 21 5 61 -22 69 -46 12 -293 7 -312 -7z"/>
<path d="M4244 3956 c-11 -28 1 -60 24 -66 12 -3 91 -3 175 0 l152 5 3 29 c2
16 -2 32 -10 37 -7 5 -86 9 -176 9 -132 0 -164 -3 -168 -14z"/>
<path d="M5007 3573 c-4 -3 -7 -82 -7 -174 0 -143 2 -168 16 -173 29 -11 53
-6 64 14 13 25 12 297 -1 323 -10 17 -59 24 -72 10z"/>
<path d="M5237 3573 c-13 -12 -8 -328 5 -341 18 -18 56 -14 68 7 15 28 13 314
-2 329 -13 13 -60 16 -71 5z"/>
<path d="M5465 3568 c-3 -8 -4 -88 -3 -178 l3 -165 26 -3 c45 -5 50 12 47 189
l-3 164 -33 3 c-20 2 -34 -2 -37 -10z"/>
<path d="M5693 3573 c-10 -3 -13 -48 -13 -173 0 -159 1 -170 20 -180 14 -8 26
-8 40 0 19 10 20 21 20 179 0 145 -2 170 -16 175 -18 7 -33 7 -51 -1z"/>
<path d="M7073 4560 c-104 -236 -153 -449 -153 -671 0 -214 49 -421 135 -574
l40 -70 7 69 c6 46 18 87 37 122 l29 53 -29 83 c-40 117 -53 213 -45 343 6
115 36 250 81 370 l25 68 -49 52 c-48 51 -55 67 -64 150 l-3 30 -11 -25z"/>
<path d="M982 4540 c-1 -55 -22 -98 -68 -140 l-44 -41 30 -85 c87 -247 94
-528 19 -730 l-20 -53 25 -38 c25 -37 43 -102 48 -173 l3 -35 33 55 c85 145
131 317 139 527 7 170 -5 282 -43 431 -25 97 -104 312 -115 312 -3 0 -6 -14
-7 -30z"/>
<path d="M720 3516 c0 -2 7 -23 15 -46 19 -53 19 -162 1 -288 -24 -165 -28
-244 -17 -338 23 -191 94 -393 191 -542 54 -84 240 -292 261 -292 5 0 5 11 0
23 -18 48 -33 223 -26 312 8 110 35 231 70 309 26 60 43 73 25 20 -46 -137
-36 -503 19 -714 19 -70 24 -79 83 -132 58 -53 209 -168 220 -168 2 0 -7 33
-21 73 -23 64 -26 88 -26 212 0 123 3 146 21 185 12 25 29 54 39 65 l17 20 -7
-20 c-4 -11 -10 -66 -13 -122 -6 -140 21 -257 93 -402 63 -125 40 -108 410
-295 268 -135 385 -203 510 -297 196 -146 351 -353 396 -530 7 -27 16 -49 20
-49 22 0 141 61 223 115 25 16 25 16 47 -27 12 -24 48 -84 81 -135 l59 -92 57
25 c68 30 139 70 147 84 10 17 23 11 31 -12 9 -31 65 -116 100 -154 50 -53
137 -118 211 -157 l71 -37 48 20 c132 57 259 172 315 285 l31 64 38 -25 c21
-14 73 -40 115 -59 l78 -34 28 39 c15 21 53 81 84 133 l57 95 36 -25 c41 -28
155 -87 189 -97 19 -6 23 -1 38 46 78 237 232 426 485 595 109 72 191 118 415
232 314 159 338 173 373 228 45 70 98 188 117 263 19 70 25 226 12 300 l-8 45
26 -37 c70 -102 73 -332 6 -483 l-20 -45 27 17 c56 36 152 110 211 165 59 55
62 60 81 140 28 122 40 236 40 388 -1 119 -6 184 -25 320 -10 73 56 -87 76
-182 23 -112 25 -321 5 -418 -8 -36 -13 -66 -11 -68 1 -1 37 29 79 69 180 168
307 401 360 661 20 98 21 301 1 428 -19 120 -18 253 0 305 8 22 15 41 15 43 0
1 -17 -6 -37 -17 -102 -53 -145 -136 -151 -293 l-5 -107 -27 14 c-15 8 -45 38
-66 66 -34 47 -39 50 -51 33 -39 -54 -26 -130 53 -291 39 -78 57 -129 61 -167
5 -53 4 -57 -30 -91 -40 -40 -68 -44 -98 -14 -18 18 -20 29 -15 78 3 31 9 87
13 125 l6 70 -40 -42 c-22 -23 -45 -42 -51 -42 -8 0 -12 24 -12 70 0 73 -22
146 -40 135 -5 -3 -10 -12 -10 -18 0 -15 -58 -87 -70 -87 -5 0 -7 13 -4 29 9
44 -26 114 -67 133 -18 9 -34 16 -35 15 -1 -1 3 -25 9 -54 10 -47 7 -66 -21
-180 -44 -175 -44 -248 3 -392 19 -59 35 -123 35 -140 0 -64 -59 -122 -108
-107 -61 20 -86 103 -58 199 17 58 21 134 8 154 -5 8 -20 0 -50 -27 l-42 -39
-11 38 c-14 47 -43 86 -57 77 -29 -18 -37 -152 -15 -274 l6 -34 -29 15 c-35
17 -84 30 -84 21 0 -3 11 -20 26 -36 64 -77 109 -218 102 -323 -8 -117 -80
-225 -182 -270 -97 -44 -106 -42 -49 9 62 56 103 133 103 194 l0 44 -51 -56
c-28 -31 -55 -56 -59 -56 -4 0 3 26 16 57 25 63 30 116 14 159 l-11 27 -28
-45 c-15 -24 -63 -75 -107 -114 -241 -213 -284 -266 -389 -473 -74 -147 -37
-104 -373 -426 -103 -99 -202 -230 -253 -337 -13 -27 -27 -48 -31 -48 -17 0
-114 53 -176 96 -35 24 -65 44 -67 44 -2 0 -9 -19 -15 -42 -17 -64 -85 -200
-114 -227 l-25 -23 -68 37 c-37 20 -86 52 -108 70 l-41 33 -34 -77 c-72 -159
-165 -269 -267 -315 l-42 -19 -55 27 c-82 40 -175 145 -231 259 -25 51 -45
101 -45 110 0 24 -8 22 -51 -18 -36 -32 -166 -105 -189 -105 -20 0 -61 77
-134 253 l-15 38 -63 -47 c-63 -46 -148 -94 -168 -94 -5 0 -25 30 -44 68 -55
107 -128 204 -233 304 -53 51 -137 131 -186 178 -115 110 -162 173 -236 318
-75 148 -128 220 -221 302 -140 124 -228 212 -240 241 -16 39 -28 37 -36 -7
-9 -50 0 -116 23 -164 11 -22 18 -40 14 -40 -15 0 -54 35 -82 73 l-29 40 0
-48 c0 -64 28 -121 92 -184 l52 -51 -39 11 c-95 26 -158 76 -203 163 -24 45
-27 62 -27 151 0 122 21 193 82 283 l43 62 -27 -6 c-16 -3 -41 -13 -57 -20
-16 -8 -30 -14 -31 -14 -2 0 2 19 7 43 14 62 5 205 -16 245 -10 19 -20 31 -23
29 -3 -3 -15 -33 -27 -67 l-22 -60 -42 38 c-23 22 -44 37 -46 33 -17 -27 -15
-86 4 -161 18 -69 20 -92 11 -121 -13 -44 -37 -67 -79 -75 -26 -5 -36 -1 -62
24 -41 41 -40 89 6 234 33 106 35 119 31 208 -4 59 -14 120 -27 160 -23 68
-32 186 -17 228 8 22 8 22 -24 9 -48 -19 -72 -57 -73 -116 -1 -28 -4 -51 -7
-51 -10 0 -56 54 -71 84 l-15 29 -19 -28 c-13 -20 -21 -54 -24 -109 l-5 -81
-43 43 c-54 55 -59 45 -42 -93 13 -110 7 -138 -29 -150 -26 -8 -65 9 -90 41
-36 46 -28 92 40 238 67 142 82 212 59 280 -12 36 -30 49 -30 21 0 -8 -23 -39
-52 -68 l-52 -52 -12 115 c-15 129 -33 187 -77 237 -25 29 -107 82 -107 69z"/>
<path d="M3975 658 c-31 -17 -45 -39 -45 -72 0 -38 38 -120 77 -165 l29 -34
32 41 c58 72 84 150 66 197 -15 38 -113 59 -159 33z"/>
</g>
</svg>
